<svg width="25" height="25" viewBox="0 0 25 25" fill="none" xmlns="http://www.w3.org/2000/svg">
<g clip-path="url(#clip0_2_6)">
<path d="M12.5 4.16669V1.04169L8.33333 5.20835L12.5 9.37502V6.25002C15.9479 6.25002 18.75 9.0521 18.75 12.5C18.75 13.5521 18.4896 14.5521 18.0208 15.4167L19.5417 16.9375C20.3542 15.6563 20.8333 14.1354 20.8333 12.5C20.8333 7.89585 17.1042 4.16669 12.5 4.16669ZM12.5 18.75C9.05208 18.75 6.25 15.9479 6.25 12.5C6.25 11.4479 6.51041 10.4479 6.97916 9.58335L5.45833 8.06252C4.64583 9.34377 4.16666 10.8646 4.16666 12.5C4.16666 17.1042 7.89583 20.8334 12.5 20.8334V23.9584L16.6667 19.7917L12.5 15.625V18.75Z" fill="white"/>
</g>
<defs>
<clipPath id="clip0_2_6">
<rect width="25" height="25" fill="white"/>
</clipPath>
</defs>
</svg>
